<?xml version="1.0" standalone="no"?>
<!DOCTYPE svg PUBLIC "-//W3C//DTD SVG 20010904//EN"
 "http://www.w3.org/TR/2001/REC-SVG-20010904/DTD/svg10.dtd">
<svg version="1.0" xmlns="http://www.w3.org/2000/svg"
 width="357.000000pt" height="201.000000pt" viewBox="0 0 357.000000 201.000000"
 preserveAspectRatio="xMidYMid meet">

<g transform="translate(0.000000,201.000000) scale(0.100000,-0.100000)"
fill="#000000" stroke="none">
<path d="M861 1967 c-27 -13 -815 -837 -842 -882 -28 -44 -26 -132 4 -175 12
-18 35 -43 50 -54 28 -20 42 -21 451 -26 l424 -5 367 -375 c201 -206 380 -383
396 -394 41 -26 182 -20 219 9 50 40 786 798 813 838 33 48 37 124 10 174 -10
17 -198 216 -418 442 -290 297 -410 415 -438 426 -48 19 -117 19 -165 0 -26
-11 -150 -130 -412 -396 l-375 -380 -187 3 -187 3 254 267 c139 146 261 280
269 297 38 73 11 168 -63 218 -38 26 -127 31 -170 10z m1462 -933 l36 -40
-273 -280 -274 -279 -269 275 c-149 151 -270 280 -271 285 0 6 121 135 270
288 l270 278 237 -243 c131 -134 254 -261 274 -284z"/>
<path d="M2574 1949 c-92 -26 -140 -168 -86 -251 10 -14 165 -177 346 -362
l328 -336 -58 -63 c-31 -34 -181 -189 -333 -344 -151 -156 -282 -295 -290
-310 -22 -41 -19 -122 5 -163 32 -55 77 -80 143 -80 35 0 68 7 88 18 39 21
811 812 836 855 20 37 23 131 4 164 -7 12 -193 208 -415 436 -414 426 -439
448 -510 446 -15 0 -41 -5 -58 -10z"/>
</g>
</svg>
